<?xml version="1.0" standalone="no"?>
<!DOCTYPE svg PUBLIC "-//W3C//DTD SVG 20010904//EN"
 "http://www.w3.org/TR/2001/REC-SVG-20010904/DTD/svg10.dtd">
<svg version="1.0" xmlns="http://www.w3.org/2000/svg"
 width="924.000000pt" height="924.000000pt" viewBox="0 0 924.000000 924.000000"
 preserveAspectRatio="xMidYMid meet">
<metadata>
Created by potrace 1.11, written by Peter Selinger 2001-2013
</metadata>
<g transform="translate(0.000000,924.000000) scale(0.100000,-0.100000)"
fill="#000000" stroke="none">
<path d="M1494 8179 c-96 -150 -183 -365 -219 -539 -42 -198 -37 -553 9 -780
62 -305 180 -619 348 -923 l43 -79 -39 -111 c-82 -236 -164 -377 -300 -512
-147 -146 -279 -199 -491 -198 -167 1 -274 30 -461 125 -79 40 -146 69 -150
66 -3 -4 -17 -67 -31 -140 -84 -461 -32 -831 174 -1237 40 -79 72 -145 71
-146 -2 -2 -102 51 -222 116 -121 66 -221 117 -223 115 -8 -8 319 -646 397
-776 380 -629 916 -1090 1548 -1334 67 -26 122 -51 122 -55 0 -4 -24 -8 -52
-10 -81 -3 -460 -51 -483 -60 -25 -11 -69 5 408 -150 423 -139 548 -171 747
-196 209 -25 533 -19 773 16 l77 11 108 -103 c106 -102 250 -199 295 -199 10
0 42 22 70 48 87 80 79 78 134 39 175 -125 411 -173 646 -132 112 19 229 63
303 111 32 22 64 42 70 46 7 5 40 -17 79 -52 37 -33 75 -60 84 -60 42 0 189
99 288 194 l103 99 186 -18 c336 -32 680 -12 944 55 128 33 864 277 868 288 2
6 -27 13 -70 17 -40 4 -143 15 -228 26 -85 10 -177 19 -203 19 -30 0 -47 4
-45 11 2 6 51 28 108 50 275 104 557 267 810 468 122 97 374 349 471 471 197
247 309 431 520 854 88 175 158 320 156 322 -4 4 -259 -131 -394 -208 -29 -16
-53 -26 -53 -23 0 4 24 53 54 109 206 382 271 783 202 1231 -14 94 -26 173
-26 178 0 17 -37 4 -148 -52 -210 -107 -312 -135 -487 -135 -128 1 -205 18
-313 71 -87 43 -210 153 -279 251 -62 86 -142 248 -183 369 l-34 99 51 90
c160 284 271 560 343 855 42 173 55 298 55 529 -1 223 -18 343 -71 507 -30 92
-116 276 -167 356 -36 55 -38 57 -81 57 -71 0 -213 -28 -336 -66 -351 -110
-724 -347 -1077 -688 -83 -79 -107 -97 -125 -93 -13 3 -90 28 -173 57 -200 69
-414 124 -631 162 l-179 31 -470 4 c-263 1 -527 -2 -600 -7 -261 -21 -559 -85
-862 -186 -89 -30 -167 -54 -174 -54 -6 0 -63 50 -128 111 -235 225 -504 420
-747 542 -187 93 -441 171 -599 183 l-83 7 -28 -44z m322 -560 c75 -34 205
-113 295 -181 120 -91 237 -211 391 -403 148 -186 238 -278 294 -301 58 -24
126 -20 192 12 62 30 165 127 196 187 l20 35 -26 34 c-14 18 -51 62 -83 97
-31 35 -53 67 -48 71 29 28 434 161 639 211 263 63 355 73 639 71 143 -1 280
-2 305 -4 25 -1 98 4 162 12 263 31 699 -35 1103 -167 161 -53 316 -110 328
-123 5 -4 -22 -43 -59 -86 -37 -44 -74 -87 -82 -96 -22 -26 -7 -53 75 -139
157 -164 284 -174 425 -35 29 28 114 128 190 221 151 189 291 331 415 423 95
70 300 185 318 179 18 -7 52 -124 66 -223 14 -109 6 -378 -16 -516 -45 -288
-109 -517 -236 -855 -29 -76 -21 -110 32 -136 35 -17 38 -23 88 -175 128 -392
314 -643 573 -773 122 -61 202 -80 363 -86 126 -5 152 -2 259 22 66 15 144 38
174 51 30 13 60 24 67 24 18 0 22 -24 36 -208 14 -192 7 -260 -47 -439 -92
-303 -215 -532 -444 -828 l-92 -118 89 5 c98 6 196 35 332 99 46 21 85 38 87
36 6 -6 -141 -258 -221 -377 -124 -188 -232 -319 -394 -481 -209 -209 -396
-352 -637 -488 -276 -154 -703 -296 -961 -318 -100 -8 -101 -12 -23 -74 68
-54 134 -90 223 -119 97 -33 94 -36 -74 -74 -174 -38 -329 -50 -594 -42 -257
7 -305 12 -305 33 0 7 11 35 24 61 36 71 84 231 101 334 8 51 15 96 15 101 0
4 58 7 129 7 140 0 309 19 461 51 92 20 352 100 378 117 8 5 -10 13 -49 20
-33 6 -81 21 -106 33 -47 23 -113 75 -113 89 0 4 56 39 124 79 541 311 1006
812 1302 1403 47 93 144 317 144 331 0 2 -39 7 -87 11 -167 14 -306 54 -461
132 -139 71 -247 151 -351 260 -132 140 -186 244 -199 393 l-7 76 -60 13 c-97
22 -420 21 -530 -1 -291 -58 -570 -196 -772 -381 -39 -36 -75 -66 -80 -66 -5
0 -6 30 -1 73 10 88 2 168 -23 225 -17 39 -39 57 -39 31 0 -21 -88 -187 -138
-261 -117 -172 -272 -320 -396 -379 -69 -33 -75 -30 -111 40 -77 155 -172 454
-239 756 -38 173 -101 528 -112 638 -4 37 -11 70 -15 73 -10 6 -14 -11 -29
-126 -71 -520 -198 -1027 -327 -1302 -54 -116 -60 -118 -162 -62 -46 26 -102
73 -186 158 -131 132 -215 248 -281 390 -21 47 -43 85 -47 86 -4 0 -17 -21
-29 -46 -17 -40 -20 -62 -16 -170 1 -68 -1 -124 -6 -124 -4 0 -41 31 -82 69
-177 165 -453 308 -704 365 -172 39 -393 45 -582 15 l-78 -11 0 -62 c0 -120
-58 -252 -163 -373 -114 -132 -230 -219 -412 -308 -138 -68 -258 -102 -406
-117 l-117 -12 24 -63 c156 -414 427 -826 769 -1168 212 -213 409 -365 668
-515 59 -34 107 -68 107 -75 0 -17 -94 -81 -145 -98 -22 -8 -60 -18 -84 -22
-23 -4 -39 -11 -34 -15 4 -5 60 -27 125 -49 224 -77 483 -121 709 -121 95 0
131 -3 133 -12 2 -7 9 -53 15 -101 13 -96 64 -264 105 -345 14 -28 22 -53 17
-56 -24 -15 -287 -28 -481 -23 -213 5 -358 23 -499 61 -78 21 -80 30 -10 50
78 21 158 62 237 120 73 54 80 76 23 76 -122 0 -409 69 -631 152 -560 209
-1052 608 -1404 1138 -76 114 -216 355 -216 371 0 4 44 -13 98 -37 127 -57
259 -94 333 -94 33 0 59 3 59 6 0 4 -13 21 -28 38 -48 54 -197 266 -258 366
-116 191 -208 414 -256 625 -19 83 -23 129 -23 270 0 94 4 196 8 229 10 67 4
66 122 21 183 -69 412 -85 588 -41 120 31 170 53 272 121 209 139 370 383 484
732 41 125 52 149 73 158 65 26 75 72 34 159 -13 28 -47 121 -76 206 -179 536
-229 1067 -124 1329 9 22 17 41 19 41 1 0 24 -10 51 -21z m4804 -3693 c0 -15
-202 -195 -320 -286 -108 -82 -164 -115 -268 -155 -111 -43 -199 -47 -286 -14
-59 22 -206 113 -206 127 0 23 171 114 303 163 146 54 455 128 682 163 50 8
91 14 93 15 1 1 2 -5 2 -13z m-3769 -20 c281 -51 498 -109 658 -177 92 -40
199 -101 213 -123 11 -16 -45 -59 -141 -108 -75 -39 -92 -43 -166 -46 -78 -4
-89 -1 -184 37 -112 45 -176 83 -296 180 -116 94 -285 243 -285 253 0 14 61 9
201 -16z m1884 -86 c115 -13 229 -42 313 -81 l66 -29 -48 -49 -48 -49 115
-113 c124 -124 188 -213 268 -375 50 -103 133 -339 145 -413 14 -87 41 -34
109 212 9 31 20 57 25 57 17 0 94 -268 132 -460 19 -97 23 -144 21 -295 -1
-197 -10 -265 -54 -400 -57 -178 -152 -330 -283 -452 -85 -79 -139 -113 -160
-98 -8 6 -54 41 -102 78 -181 139 -413 227 -599 227 -205 0 -455 -103 -656
-271 -26 -22 -54 -39 -62 -39 -23 0 -129 83 -191 151 -153 164 -268 421 -281
625 -2 39 -7 106 -11 150 -9 109 18 311 66 499 45 172 82 287 96 292 5 2 15
-25 21 -59 16 -83 75 -261 88 -265 6 -2 17 25 24 59 36 174 154 451 253 595
62 90 189 227 248 268 l41 28 -47 48 -48 48 59 26 c109 49 250 82 395 94 8 0
56 -4 105 -9z"/>
<path d="M4605 2444 c-163 -20 -268 -77 -325 -178 -34 -58 -40 -133 -16 -191
36 -86 158 -227 241 -277 52 -32 146 -67 165 -61 84 26 177 100 272 213 111
133 129 208 77 310 -36 72 -136 144 -234 168 -50 13 -140 21 -180 16z m137
-114 c49 -14 98 -56 98 -84 0 -54 -86 -96 -192 -96 -119 1 -188 36 -188 95 0
37 23 61 77 81 45 16 153 18 205 4z"/>
</g>
</svg>
